{
    "asset" : {
        "generator" : "Khronos glTF Blender I/O v1.7.33",
        "version" : "2.0"
    },
    "scene" : 0,
    "scenes" : [
        {
            "name" : "Scene",
            "nodes" : [
                0,
                1,
                2,
                3
            ]
        }
    ],
    "nodes" : [
        {
            "mesh" : 0,
            "name" : "Cube",
            "scale" : [
                6.024937629699707,
                6.024937629699707,
                6.024937629699707
            ]
        },
        {
            "mesh" : 1,
            "name" : "M",
            "scale" : [
                4.103310585021973,
                4.103310585021973,
                4.103310585021973
            ],
            "translation" : [
                3.6408910751342773,
                -0.014932677149772644,
                0.0026358962059020996
            ]
        },
        {
            "name" : "Circle"
        },
        {
            "mesh" : 2,
            "name" : "Cube.001",
            "rotation" : [
                0,
                -0.7071068286895752,
                0,
                -0.7071068286895752
            ],
            "scale" : [
                4.081634998321533,
                4.081634998321533,
                4.081634998321533
            ],
            "translation" : [
                0.12624835968017578,
                0,
                -3.4588747024536133
            ]
        }
    ],
    "materials" : [
        {
            "doubleSided" : true,
            "name" : "Material",
            "pbrMetallicRoughness" : {
                "baseColorFactor" : [
                    0.8000000715255737,
                    0.1910962611436844,
                    0.07255565375089645,
                    1
                ],
                "metallicFactor" : 0,
                "roughnessFactor" : 0.4000000059604645
            }
        },
        {
            "doubleSided" : true,
            "name" : "Material.001",
            "pbrMetallicRoughness" : {
                "baseColorFactor" : [
                    0.049154024571180344,
                    0.10265477001667023,
                    0.8000000715255737,
                    1
                ],
                "metallicFactor" : 0,
                "roughnessFactor" : 0.5
            }
        },
        {
            "doubleSided" : true,
            "name" : "Material.002",
            "pbrMetallicRoughness" : {
                "baseColorFactor" : [
                    0.01599629782140255,
                    0.029556844383478165,
                    0.19806936383247375,
                    1
                ],
                "metallicFactor" : 0,
                "roughnessFactor" : 0.5
            }
        }
    ],
    "meshes" : [
        {
            "name" : "Cube",
            "primitives" : [
                {
                    "attributes" : {
                        "POSITION" : 0,
                        "NORMAL" : 1,
                        "TEXCOORD_0" : 2
                    },
                    "indices" : 3,
                    "material" : 0
                }
            ]
        },
        {
            "name" : "Cube.001",
            "primitives" : [
                {
                    "attributes" : {
                        "POSITION" : 4,
                        "NORMAL" : 5,
                        "TEXCOORD_0" : 6
                    },
                    "indices" : 7,
                    "material" : 1
                }
            ]
        },
        {
            "name" : "Cube.003",
            "primitives" : [
                {
                    "attributes" : {
                        "POSITION" : 8,
                        "NORMAL" : 9,
                        "TEXCOORD_0" : 10
                    },
                    "indices" : 11,
                    "material" : 2
                }
            ]
        }
    ],
    "accessors" : [
        {
            "bufferView" : 0,
            "componentType" : 5126,
            "count" : 24,
            "max" : [
                1,
                1,
                1
            ],
            "min" : [
                -1,
                -1,
                -1
            ],
            "type" : "VEC3"
        },
        {
            "bufferView" : 1,
            "componentType" : 5126,
            "count" : 24,
            "type" : "VEC3"
        },
        {
            "bufferView" : 2,
            "componentType" : 5126,
            "count" : 24,
            "type" : "VEC2"
        },
        {
            "bufferView" : 3,
            "componentType" : 5123,
            "count" : 36,
            "type" : "SCALAR"
        },
        {
            "bufferView" : 4,
            "componentType" : 5126,
            "count" : 36,
            "max" : [
                1,
                1,
                1
            ],
            "min" : [
                0.28279662132263184,
                -1,
                -1
            ],
            "type" : "VEC3"
        },
        {
            "bufferView" : 5,
            "componentType" : 5126,
            "count" : 36,
            "type" : "VEC3"
        },
        {
            "bufferView" : 6,
            "componentType" : 5126,
            "count" : 36,
            "type" : "VEC2"
        },
        {
            "bufferView" : 7,
            "componentType" : 5123,
            "count" : 60,
            "type" : "SCALAR"
        },
        {
            "bufferView" : 8,
            "componentType" : 5126,
            "count" : 133,
            "max" : [
                1,
                1,
                1
            ],
            "min" : [
                0.2803914546966553,
                -1,
                -1
            ],
            "type" : "VEC3"
        },
        {
            "bufferView" : 9,
            "componentType" : 5126,
            "count" : 133,
            "type" : "VEC3"
        },
        {
            "bufferView" : 10,
            "componentType" : 5126,
            "count" : 133,
            "type" : "VEC2"
        },
        {
            "bufferView" : 11,
            "componentType" : 5123,
            "count" : 264,
            "type" : "SCALAR"
        }
    ],
    "bufferViews" : [
        {
            "buffer" : 0,
            "byteLength" : 288,
            "byteOffset" : 0
        },
        {
            "buffer" : 0,
            "byteLength" : 288,
            "byteOffset" : 288
        },
        {
            "buffer" : 0,
            "byteLength" : 192,
            "byteOffset" : 576
        },
        {
            "buffer" : 0,
            "byteLength" : 72,
            "byteOffset" : 768
        },
        {
            "buffer" : 0,
            "byteLength" : 432,
            "byteOffset" : 840
        },
        {
            "buffer" : 0,
            "byteLength" : 432,
            "byteOffset" : 1272
        },
        {
            "buffer" : 0,
            "byteLength" : 288,
            "byteOffset" : 1704
        },
        {
            "buffer" : 0,
            "byteLength" : 120,
            "byteOffset" : 1992
        },
        {
            "buffer" : 0,
            "byteLength" : 1596,
            "byteOffset" : 2112
        },
        {
            "buffer" : 0,
            "byteLength" : 1596,
            "byteOffset" : 3708
        },
        {
            "buffer" : 0,
            "byteLength" : 1064,
            "byteOffset" : 5304
        },
        {
            "buffer" : 0,
            "byteLength" : 528,
            "byteOffset" : 6368
        }
    ],
    "buffers" : [
        {
            "byteLength" : 6896,
            "uri" : "data:application/octet-stream;base64,"
        }
    ]
}
